<svg xmlns="http://www.w3.org/2000/svg" viewBox="0 0 305.02 315.89"><defs><style>.cls-1,.cls-2{fill:none;stroke:#231f20;stroke-miterlimit:10;}.cls-2{stroke-width:0.5px;}</style></defs><g id="_8web" data-name="8web"><circle class="cls-1" cx="163.04" cy="3.18" r="2.68"/><circle class="cls-1" cx="163.04" cy="280.78" r="2.68"/><circle class="cls-1" cx="64.46" cy="240.15" r="2.68"/><circle class="cls-1" cx="89.43" cy="215.54" r="2.68"/><circle class="cls-1" cx="113.75" cy="191.27" r="2.68"/><circle class="cls-1" cx="163.04" cy="246.08" r="2.68"/><circle class="cls-1" cx="163.04" cy="211.38" r="2.68"/><circle class="cls-1" cx="163.04" cy="176.68" r="2.68"/><circle class="cls-1" cx="187.74" cy="166.71" r="2.68"/><circle class="cls-1" cx="212.12" cy="191.07" r="2.68"/><circle class="cls-1" cx="236.73" cy="215.54" r="2.68"/><circle class="cls-1" cx="261.21" cy="240.15" r="2.68"/><circle class="cls-1" cx="24.24" cy="141.98" r="2.68"/><circle class="cls-1" cx="58.94" cy="141.98" r="2.68"/><circle class="cls-1" cx="93.64" cy="141.98" r="2.68"/><circle class="cls-1" cx="128.34" cy="141.98" r="2.68"/><circle class="cls-1" cx="64.46" cy="44.23" r="2.68"/><circle class="cls-1" cx="89.09" cy="68.35" r="2.68"/><circle class="cls-1" cx="113.75" cy="93.1" r="2.68"/><circle class="cls-1" cx="138.37" cy="117.69" r="2.68"/><circle class="cls-1" cx="301.84" cy="141.98" r="2.68"/><circle class="cls-1" cx="267.14" cy="141.98" r="2.68"/><circle class="cls-1" cx="232.44" cy="141.98" r="2.68"/><circle class="cls-1" cx="197.74" cy="141.98" r="2.68"/><circle class="cls-1" cx="163.04" cy="107.28" r="2.68"/><circle class="cls-1" cx="163.04" cy="72.58" r="2.68"/><circle class="cls-1" cx="163.04" cy="37.88" r="2.68"/><circle class="cls-1" cx="187.74" cy="117.69" r="2.68"/><circle class="cls-1" cx="212.12" cy="93.1" r="2.68"/><circle class="cls-1" cx="236.64" cy="68.35" r="2.68"/><circle class="cls-1" cx="261.21" cy="43.81" r="2.68"/><circle class="cls-1" cx="138.37" cy="166.71" r="2.68"/><line class="cls-1" x1="140.2" y1="168.68" x2="160.36" y2="176.68"/><line class="cls-1" x1="115.57" y1="193.24" x2="160.36" y2="211.38"/><line class="cls-1" x1="91.25" y1="217.5" x2="160.36" y2="246.08"/><line class="cls-1" x1="66.29" y1="242.12" x2="160.36" y2="280.78"/><line class="cls-1" x1="165.72" y1="176.68" x2="185.77" y2="168.54"/><line class="cls-1" x1="166.01" y1="210.9" x2="209.79" y2="192.37"/><line class="cls-1" x1="165.97" y1="245.26" x2="234.77" y2="217.36"/><line class="cls-1" x1="165.72" y1="280.32" x2="259.24" y2="241.98"/><line class="cls-1" x1="189.07" y1="164.75" x2="197.74" y2="144.67"/><line class="cls-1" x1="213.63" y1="189.06" x2="231.92" y2="144.62"/><line class="cls-1" x1="238.9" y1="213.78" x2="266.38" y2="144.55"/><line class="cls-1" x1="263.18" y1="238.33" x2="300.85" y2="144.47"/><line class="cls-1" x1="185.52" y1="116.18" x2="165.44" y2="107.42"/><line class="cls-1" x1="210.23" y1="90.87" x2="165.44" y2="72.72"/><line class="cls-1" x1="234.55" y1="66.6" x2="165.45" y2="38.02"/><line class="cls-1" x1="259.52" y1="41.99" x2="165.45" y2="3.32"/><line class="cls-1" x1="197.74" y1="139.3" x2="189.67" y2="119.54"/><line class="cls-1" x1="232.44" y1="139.3" x2="213.96" y2="95.05"/><line class="cls-1" x1="266.79" y1="139.3" x2="238.45" y2="70.32"/><line class="cls-1" x1="301.84" y1="139.3" x2="263.08" y2="45.73"/><line class="cls-1" x1="128.06" y1="144.81" x2="136.66" y2="164.72"/><line class="cls-1" x1="94.28" y1="144.76" x2="112.48" y2="188.91"/><line class="cls-1" x1="59.93" y1="144.72" x2="87.6" y2="213.57"/><line class="cls-1" x1="24.87" y1="144.47" x2="63.19" y2="237.79"/><line class="cls-1" x1="136.34" y1="118.98" x2="128.34" y2="139.14"/><line class="cls-1" x1="112.36" y1="95.4" x2="94.64" y2="139.14"/><line class="cls-1" x1="87.52" y1="70.04" x2="59.16" y2="139.3"/><line class="cls-1" x1="62.72" y1="46.26" x2="25.24" y2="139.14"/><line class="cls-1" x1="160.36" y1="107.28" x2="140" y2="115.32"/><line class="cls-1" x1="160.36" y1="73.03" x2="115.46" y2="90.78"/><line class="cls-1" x1="160" y1="38.58" x2="91.77" y2="66.89"/><line class="cls-1" x1="160.25" y1="3.52" x2="66.39" y2="42.7"/></g><g id="_8lines" data-name="8lines"><line class="cls-1" x1="200.42" y1="141.98" x2="229.76" y2="141.98"/><line class="cls-1" x1="235.12" y1="141.98" x2="264.46" y2="141.98"/><line class="cls-1" x1="269.82" y1="141.98" x2="299.16" y2="141.98"/><line class="cls-1" x1="189.42" y1="115.61" x2="210.13" y2="94.89"/><line class="cls-1" x1="213.91" y1="91.11" x2="234.76" y2="70.26"/><line class="cls-1" x1="238.55" y1="66.47" x2="259.31" y2="45.71"/><line class="cls-1" x1="163.04" y1="104.6" x2="163.04" y2="75.27"/><line class="cls-1" x1="163.04" y1="69.9" x2="163.04" y2="40.57"/><line class="cls-1" x1="163.04" y1="35.2" x2="163.04" y2="5.87"/><line class="cls-1" x1="136.56" y1="115.72" x2="115.98" y2="95.31"/><line class="cls-1" x1="111.84" y1="91.22" x2="90.96" y2="70.5"/><line class="cls-1" x1="87.04" y1="66.62" x2="66.36" y2="46.11"/><line class="cls-1" x1="125.66" y1="141.98" x2="96.32" y2="141.98"/><line class="cls-1" x1="90.96" y1="141.98" x2="61.62" y2="141.98"/><line class="cls-1" x1="56.26" y1="141.98" x2="26.92" y2="141.98"/><line class="cls-1" x1="136.41" y1="168.54" x2="115.72" y2="189.45"/><line class="cls-1" x1="111.78" y1="193.1" x2="91.54" y2="213.48"/><line class="cls-1" x1="87.46" y1="217.36" x2="66.43" y2="238.33"/><line class="cls-1" x1="189.56" y1="168.68" x2="210.3" y2="189.1"/><line class="cls-1" x1="213.95" y1="193.03" x2="234.91" y2="213.57"/><line class="cls-1" x1="238.56" y1="217.5" x2="259.38" y2="238.19"/><line class="cls-1" x1="163.04" y1="179.37" x2="163.04" y2="208.7"/><line class="cls-1" x1="163.04" y1="214.06" x2="163.04" y2="243.4"/><line class="cls-1" x1="163.04" y1="248.77" x2="163.04" y2="278.1"/></g><g id="spidercircuit"><line class="cls-1" x1="170.11" y1="148.5" x2="173.07" y2="150.86"/><line class="cls-1" x1="178.65" y1="145.87" x2="183.01" y2="145.87"/><line class="cls-1" x1="177.23" y1="152.35" x2="188.79" y2="152.35"/><circle class="cls-2" cx="176.15" cy="145.69" r="2.35"/><circle class="cls-2" cx="174.88" cy="152.35" r="2.35"/><line class="cls-1" x1="165.89" y1="148.77" x2="163.37" y2="151.23"/><line class="cls-1" x1="156" y1="145.58" x2="139.01" y2="145.57"/><line class="cls-1" x1="159.33" y1="152.82" x2="137.54" y2="152.81"/><circle class="cls-2" cx="161.41" cy="152.35" r="2.35"/><circle class="cls-2" cx="167.94" cy="147.51" r="2.35"/><circle class="cls-2" cx="158.35" cy="145.39" r="2.35"/><line class="cls-1" x1="174.13" y1="146.09" x2="170.21" y2="146.92"/><line class="cls-1" x1="160.7" y1="145.39" x2="165.59" y2="147.04"/><line class="cls-1" x1="170.11" y1="135.53" x2="173.07" y2="133.17"/><line class="cls-1" x1="178.65" y1="138.15" x2="183.01" y2="138.15"/><line class="cls-1" x1="177.23" y1="131.68" x2="188.79" y2="131.68"/><circle class="cls-2" cx="176.15" cy="138.34" r="2.35"/><circle class="cls-2" cx="174.88" cy="131.68" r="2.35"/><line class="cls-1" x1="165.89" y1="135.26" x2="163.37" y2="132.8"/><line class="cls-1" x1="156" y1="138.45" x2="139.01" y2="138.46"/><line class="cls-1" x1="159.33" y1="131.21" x2="137.54" y2="131.21"/><circle class="cls-2" cx="161.41" cy="131.68" r="2.35"/><circle class="cls-2" cx="167.94" cy="136.51" r="2.35"/><circle class="cls-2" cx="158.35" cy="138.64" r="2.35"/><line class="cls-1" x1="173.86" y1="137.81" x2="170.29" y2="136.99"/><line class="cls-1" x1="160.7" y1="138.64" x2="165.59" y2="136.99"/><line class="cls-1" x1="158.35" y1="143.04" x2="158.35" y2="140.99"/><line class="cls-1" x1="176.15" y1="143.34" x2="176.15" y2="140.69"/></g></svg>